<?xml version="1.0" standalone="no"?>
<!DOCTYPE svg PUBLIC "-//W3C//DTD SVG 20010904//EN"
 "http://www.w3.org/TR/2001/REC-SVG-20010904/DTD/svg10.dtd">
<svg version="1.0" xmlns="http://www.w3.org/2000/svg"
 width="480.000000pt" height="480.000000pt" viewBox="0 0 480.000000 480.000000"
 preserveAspectRatio="xMidYMid meet">
<metadata>
Created by potrace 1.11, written by Peter Selinger 2001-2013
</metadata>
<g transform="translate(0.000000,480.000000) scale(0.100000,-0.100000)"
fill="#000000" stroke="none">
<path d="M2145 3945 l-240 -243 -402 -1 -403 -1 0 -400 0 -400 -250 -250 -250
-250 250 -250 250 -250 0 -400 0 -400 400 0 400 0 250 -250 250 -250 250 250
250 250 400 0 400 0 0 400 0 400 250 250 250 250 -250 250 -250 250 0 400 0
400 -400 0 -400 0 -245 245 c-134 135 -250 245 -257 244 -7 0 -121 -110 -253
-244z"/>
</g>
</svg>
